HIERARCHY
ROOT Hips
{
  OFFSET 5.84602e-005 68.8428 3.50346
  CHANNELS 6 Xposition Yposition Zposition Zrotation Xrotation Yrotation
  JOINT Spine
  {
    OFFSET 0 8.597 -4.6522
    CHANNELS 3 Zrotation Xrotation Yrotation
    JOINT Spine1
    {
      OFFSET 0 7.8454 0.4098
      CHANNELS 3 Zrotation Xrotation Yrotation
      JOINT Spine2
      {
        OFFSET 0 9.7078 -2.1609
        CHANNELS 3 Zrotation Xrotation Yrotation
        JOINT Neck
        {
          OFFSET 0 21.8761 -0.4549
          CHANNELS 3 Zrotation Xrotation Yrotation
          JOINT Head
          {
            OFFSET 0 12.3537 3.3602
            CHANNELS 3 Zrotation Xrotation Yrotation
            End Site
            {
              OFFSET 0.0001 18.9506 0.5657
            }
          }
        }
        JOINT LeftShoulder
        {
          OFFSET 2.2086 21.1115 7.2329
          CHANNELS 3 Zrotation Xrotation Yrotation
          JOINT LeftArm
          {
            OFFSET 13.1193 3.0282 -4.8998
            CHANNELS 3 Zrotation Xrotation Yrotation
            JOINT LeftForeArm
            {
              OFFSET 27.4081 -0.0973053 -0.2375
              CHANNELS 3 Zrotation Xrotation Yrotation
              JOINT LeftHand
              {
                OFFSET 22.8641 0.0662994 -0.1369
                CHANNELS 3 Zrotation Xrotation Yrotation
                JOINT LeftHandIndex1
                {
                  OFFSET 8.8614 0.775009 2.4612
                  CHANNELS 3 Zrotation Xrotation Yrotation
                  JOINT LeftHandIndex2
                  {
                    OFFSET 3.3146 -0.808304 0.5841
                    CHANNELS 3 Zrotation Xrotation Yrotation
                    JOINT LeftHandIndex3
                    {
                      OFFSET 2.2628 -0.552002 0.3989
                      CHANNELS 3 Zrotation Xrotation Yrotation
                      End Site
                      {
                        OFFSET 1.6102 -0.4807 0.2612
                      }
                    }
                  }
                }
                JOINT LeftHandMiddle1
                {
                  OFFSET 8.9937 0.895004 0.2143
                  CHANNELS 3 Zrotation Xrotation Yrotation
                  JOINT LeftHandMiddle2
                  {
                    OFFSET 4.0984 0.0113983 -0.0242
                    CHANNELS 3 Zrotation Xrotation Yrotation
                    JOINT LeftHandMiddle3
                    {
                      OFFSET 2.2716 0.00689697 -0.0138001
                      CHANNELS 3 Zrotation Xrotation Yrotation
                      End Site
                      {
                        OFFSET 2.0404 -0.1441 0.0027
                      }
                    }
                  }
                }
                JOINT LeftHandRing1
                {
                  OFFSET 8.5234 0.597198 -2.0164
                  CHANNELS 3 Zrotation Xrotation Yrotation
                  JOINT LeftHandRing2
                  {
                    OFFSET 3.7188 -0.188293 -0.2328
                    CHANNELS 3 Zrotation Xrotation Yrotation
                    JOINT LeftHandRing3
                    {
                      OFFSET 2.1191 -0.106598 -0.1332
                      CHANNELS 3 Zrotation Xrotation Yrotation
                      End Site
                      {
                        OFFSET 1.8737 -0.2304 -0.0886
                      }
                    }
                  }
                }
                JOINT LeftHandPinky1
                {
                  OFFSET 7.9094 -0.601089 -3.4825
                  CHANNELS 3 Zrotation Xrotation Yrotation
                  JOINT LeftHandPinky2
                  {
                    OFFSET 2.2874 -0.477005 -0.6314
                    CHANNELS 3 Zrotation Xrotation Yrotation
                    JOINT LeftHandPinky3
                    {
                      OFFSET 1.6774 -0.349396 -0.4633
                      CHANNELS 3 Zrotation Xrotation Yrotation
                      End Site
                      {
                        OFFSET 1.4888 -0.4091 -0.3416
                      }
                    }
                  }
                }
                JOINT LeftHandThumb1
                {
                  OFFSET 1.833 -1.3875 1.3896
                  CHANNELS 3 Zrotation Xrotation Yrotation
                  JOINT LeftHandThumb2
                  {
                    OFFSET 3.4129 -1.121 2.5732
                    CHANNELS 3 Zrotation Xrotation Yrotation
                    JOINT LeftHandThumb3
                    {
                      OFFSET 2.2474 -0.804199 1.6192
                      CHANNELS 3 Zrotation Xrotation Yrotation
                      End Site
                      {
                        OFFSET 1.6527 -0.5689 1.1317
                      }
                    }
                  }
                }
              }
            }
          }
        }
        JOINT RightShoulder
        {
          OFFSET -2.2086 21.1115 7.2329
          CHANNELS 3 Zrotation Xrotation Yrotation
          JOINT RightArm
          {
            OFFSET -13.1216 3.0287 -4.9007
            CHANNELS 3 Zrotation Xrotation Yrotation
            JOINT RightForeArm
            {
              OFFSET -27.4081 -0.0973053 -0.2375
              CHANNELS 3 Zrotation Xrotation Yrotation
              JOINT RightHand
              {
                OFFSET -22.8641 0.0664063 -0.1369
                CHANNELS 3 Zrotation Xrotation Yrotation
                JOINT RightHandIndex1
                {
                  OFFSET -8.8614 0.774994 2.4612
                  CHANNELS 3 Zrotation Xrotation Yrotation
                  JOINT RightHandIndex2
                  {
                    OFFSET -3.3146 -0.808304 0.5841
                    CHANNELS 3 Zrotation Xrotation Yrotation
                    JOINT RightHandIndex3
                    {
                      OFFSET -2.2628 -0.552002 0.3989
                      CHANNELS 3 Zrotation Xrotation Yrotation
                      End Site
                      {
                        OFFSET -1.6102 -0.4807 0.2612
                      }
                    }
                  }
                }
                JOINT RightHandMiddle1
                {
                  OFFSET -8.9937 0.894989 0.2143
                  CHANNELS 3 Zrotation Xrotation Yrotation
                  JOINT RightHandMiddle2
                  {
                    OFFSET -4.0984 0.0113983 -0.0242
                    CHANNELS 3 Zrotation Xrotation Yrotation
                    JOINT RightHandMiddle3
                    {
                      OFFSET -2.2716 0.00691223 -0.0138001
                      CHANNELS 3 Zrotation Xrotation Yrotation
                      End Site
                      {
                        OFFSET -2.0404 -0.1441 0.0027
                      }
                    }
                  }
                }
                JOINT RightHandRing1
                {
                  OFFSET -8.5234 0.597198 -2.0164
                  CHANNELS 3 Zrotation Xrotation Yrotation
                  JOINT RightHandRing2
                  {
                    OFFSET -3.7188 -0.188309 -0.2328
                    CHANNELS 3 Zrotation Xrotation Yrotation
                    JOINT RightHandRing3
                    {
                      OFFSET -2.1191 -0.106598 -0.1332
                      CHANNELS 3 Zrotation Xrotation Yrotation
                      End Site
                      {
                        OFFSET -1.8737 -0.2304 -0.0886
                      }
                    }
                  }
                }
                JOINT RightHandPinky1
                {
                  OFFSET -7.9094 -0.601105 -3.4825
                  CHANNELS 3 Zrotation Xrotation Yrotation
                  JOINT RightHandPinky2
                  {
                    OFFSET -2.2874 -0.477005 -0.6314
                    CHANNELS 3 Zrotation Xrotation Yrotation
                    JOINT RightHandPinky3
                    {
                      OFFSET -1.6774 -0.349396 -0.4633
                      CHANNELS 3 Zrotation Xrotation Yrotation
                      End Site
                      {
                        OFFSET -1.4888 -0.4091 -0.3416
                      }
                    }
                  }
                }
                JOINT RightHandThumb1
                {
                  OFFSET -1.833 -1.38751 1.3896
                  CHANNELS 3 Zrotation Xrotation Yrotation
                  JOINT RightHandThumb2
                  {
                    OFFSET -3.41299 -1.12099 2.5732
                    CHANNELS 3 Zrotation Xrotation Yrotation
                    JOINT RightHandThumb3
                    {
                      OFFSET -2.24741 -0.804108 1.6192
                      CHANNELS 3 Zrotation Xrotation Yrotation
                      End Site
                      {
                        OFFSET -1.6527 -0.5689 1.1317
                      }
                    }
                  }
                }
              }
            }
          }
        }
      }
    }
  }
  JOINT RightUpLeg
  {
    OFFSET -9.1966 3.8861 -0.7581
    CHANNELS 3 Zrotation Xrotation Yrotation
    JOINT RightLeg
    {
      OFFSET -0.7359 -41.0265 0
      CHANNELS 3 Zrotation Xrotation Yrotation
      JOINT RightFoot
      {
        OFFSET 0 -40.2855 0
        CHANNELS 3 Zrotation Xrotation Yrotation
        JOINT RightToeBase
        {
          OFFSET 0 -5.6122 11.7359
          CHANNELS 3 Zrotation Xrotation Yrotation
          End Site
          {
            OFFSET 0 0 7.8731
          }
        }
      }
    }
  }
  JOINT LeftUpLeg
  {
    OFFSET 9.1965 3.8864 -0.7581
    CHANNELS 3 Zrotation Xrotation Yrotation
    JOINT LeftLeg
    {
      OFFSET 0.7359 -41.0268 0
      CHANNELS 3 Zrotation Xrotation Yrotation
      JOINT LeftFoot
      {
        OFFSET 0 -40.2855 0
        CHANNELS 3 Zrotation Xrotation Yrotation
        JOINT LeftToeBase
        {
          OFFSET 0 -5.6122 11.7359
          CHANNELS 3 Zrotation Xrotation Yrotation
          End Site
          {
            OFFSET 0 0 7.8731
          }
        }
      }
    }
  }
}
MOTION
Frames:	6
Frame Time:	0.0333333
5.84602e-005 68.8428 3.50346 0 0 -0 0 0 -0 0 0 -0 0 0 -0 0 0 -0 0 0 -0 0 0 -0 0 0 -0 0 0 -0 0 0 -0 0 0 -0 0 0 -0 0 0 -0 0 0 -0 -0.0146107 -8.87603e-005 -2.63497e-007 2.99804e-018 -2.42657e-020 -1.42182e-022 0 0 -0 -0.0187562 -0.001176 5.858e-005 5.06224e-018 3.88251e-019 1.21329e-020 0 0 -0 -0.012269 -0.00324817 0.000675346 -1.74678e-018 3.88251e-019 -0 0 0 -0 0 0 -0 0 0 -0 0 0 -0 0 0 -0 0 0 -0 0 0 -0 0 0 -0 0 0 -0 0 0 -0 0 0 -0 0.0149955 -9.10982e-005 2.64101e-007 -9.69331e-018 1.21329e-020 -4.7394e-023 0 0 -0 0.0189956 -0.00119102 -5.96516e-005 -5.41541e-019 0 2.42657e-020 0 0 -0 0.0122698 -0.00324857 -0.000673756 -2.00796e-019 0 -1.94126e-019 0 0 -0 0 0 -0 0 0 -0 3.39842 1.33031 -0.0637918 -5.65207e-008 0.834868 -0.000436188 -3.39935 -2.16518 -0.0642563 -8.89002e-024 -1.18485e-023 -1.48106e-024 -3.39844 1.35642 0.0640283 -3.18788e-007 0.782166 -0.000588827 3.39931 -2.13858 0.0634662 1.1399e-023 0 -0 
4.44938 35.2959 -22.31 0 0 -0 0.2205 0.297154 -1.488 0.448652 0.58848 -2.97719 0.448652 0.58848 -2.9772 4.49979 -0.000103825 -10.125 0.0145268 -0.00728607 -11.8596 -10.6677 -0.579048 -7.30984 -20.3049 -15.6559 -6.42874 -5.75954 2.48505 -33.8999 -17.494 0.923709 -4.44093 -3.47194e-006 -7.86994e-007 3.43272e-006 -3.06961e-006 -2.89024e-007 -2.269e-006 -3.47774e-006 -2.82216e-007 1.06423e-006 -3.47194e-006 -7.86994e-007 3.43272e-006 -0.0146311 -9.31826e-005 1.19724e-006 -3.47309e-006 -7.8744e-007 3.43262e-006 -3.47194e-006 -7.86994e-007 3.43272e-006 -0.0187481 -0.00117439 6.09616e-005 -3.47754e-006 -2.82377e-007 1.06422e-006 -3.47194e-006 -7.86994e-007 3.43272e-006 -0.012174 -0.00322417 0.000674574 -3.47759e-006 -2.82277e-007 1.06429e-006 -3.47194e-006 -7.86994e-007 3.43272e-006 -3.06961e-006 -2.89024e-007 -2.269e-006 -3.47774e-006 -2.82216e-007 1.06423e-006 20.2881 1.88001 13.1196 7.14014 -0.671768 -2.81703 9.86639 -0.934982 23.6711 10.4645 0.477394 5.17133 5.07044e-007 -2.33158e-007 -7.10514e-007 1.76556e-031 3.18055e-015 -3.18055e-015 -5.07044e-007 2.33158e-007 7.10514e-007 5.07044e-007 -2.33158e-007 -7.10514e-007 0.0150032 -9.3214e-005 6.23431e-007 -5.04995e-007 2.33238e-007 7.10484e-007 5.07044e-007 -2.33158e-007 -7.10514e-007 0.0189869 -0.00119175 -6.04618e-005 -4.77083e-015 3.97569e-015 -0 5.07044e-007 -2.33158e-007 -7.10514e-007 0.0123239 -0.00326063 -0.000676511 -5.05343e-007 2.32786e-007 7.1041e-007 5.07044e-007 -2.33158e-007 -7.10514e-007 1.76556e-031 3.18055e-015 -3.18055e-015 -5.07044e-007 2.33158e-007 7.10514e-007 0.110243 -27.9877 -4.22451 -16.259 86.2583 16.7196 -6.99282 26.7912 -2.44387 5.20126e-007 -3.79568e-009 6.94598e-007 -0.154845 -28.0623 4.17303 16.1308 86.3117 -16.5434 6.99106 26.4882 2.45733 -5.91688e-007 -4.38857e-007 -6.03618e-007 
7.91096 9.14685 -42.4291 0 0 -0 0.41851 0.537532 -2.64351 0.861423 1.05517 -5.29121 0.861423 1.05517 -5.29121 7.99953 -0.000219209 -18.0001 6.6996e-009 6.13218e-007 -21.0003 -19.0661 -1.01126 -12.9967 -38.7962 -27.4415 -12.4191 -8.58518 2.64144 -60.3088 -31.0017 1.63148 -7.89716 -1.30714e-006 1.01011e-006 -1.84493e-006 -9.54166e-015 -1.98785e-015 3.18055e-015 1.75943e-006 8.55158e-007 2.39543e-006 -1.30714e-006 1.01011e-006 -1.84493e-006 -0.0146308 -8.27035e-005 1.41801e-006 1.75961e-006 8.54854e-007 2.39554e-006 -1.30714e-006 1.01011e-006 -1.84493e-006 -0.0187962 -0.001167 6.05468e-005 1.75969e-006 8.54779e-007 2.39555e-006 -1.30714e-006 1.01011e-006 -1.84493e-006 -0.012279 -0.00324855 0.000678928 1.75965e-006 8.54932e-007 2.39547e-006 -1.30714e-006 1.01011e-006 -1.84493e-006 -9.54166e-015 -1.98785e-015 3.18055e-015 1.75943e-006 8.55158e-007 2.39543e-006 35.4871 3.15131 23.3484 12.648 -1.19113 -5.00879 18.028 -1.34699 42.0904 18.5442 0.841228 9.19416 1.28522e-006 3.57072e-006 2.36103e-006 -7.30484e-007 -1.0799e-006 1.03597e-006 2.50267e-008 9.92029e-007 3.19577e-006 1.28522e-006 3.57072e-006 2.36103e-006 0.0150153 -9.27058e-005 4.18028e-006 2.47884e-008 9.92449e-007 3.19564e-006 1.28522e-006 3.57072e-006 2.36103e-006 0.019001 -0.00119605 -5.96722e-005 2.47547e-008 9.92578e-007 3.19561e-006 1.28522e-006 3.57072e-006 2.36103e-006 0.0122899 -0.00325155 -0.000680011 2.49143e-008 9.92424e-007 3.19567e-006 1.28522e-006 3.57072e-006 2.36103e-006 -7.30484e-007 -1.0799e-006 1.03597e-006 2.50267e-008 9.92029e-007 3.19577e-006 -4.336 -49.961 -14.2275 -174.689 28.9098 170.063 -3.85305 50.9961 -10.0792 2.02141e-007 2.67997e-008 -9.29021e-007 4.20055 -49.9217 14.1184 174.774 28.9611 -170.104 3.94465 50.4129 10.0218 -6.25592e-007 4.81184e-008 -7.15961e-007 
8.40592 5.41776 -45.3246 0 0 -0 0.448676 0.572418 -2.80845 0.92493 1.12214 -5.6217 0.924931 1.12214 -5.62171 8.49971 8.73346e-005 -19.1251 -0.0929285 0.0485545 -21.9846 -20.273 -1.07085 -13.8092 -41.6702 -29.0731 -13.4056 -8.94829 2.4783 -64.0748 -32.9244 1.73132 -8.39119 -1.64307e-007 -1.71636e-006 2.24243e-008 9.54166e-015 2.38542e-015 1.59028e-015 -3.18055e-015 -5.56597e-015 1.59028e-015 -1.64307e-007 -1.71636e-006 2.24243e-008 -0.0145979 -9.00314e-005 1.03765e-006 1.27222e-014 -2.06736e-014 -7.95139e-015 -1.64307e-007 -1.71636e-006 2.24243e-008 -0.0187965 -0.00116921 5.48191e-005 2.20695e-032 -7.95139e-016 1.59028e-015 -1.64307e-007 -1.71636e-006 2.24243e-008 -0.0122999 -0.00325293 0.000675434 -5.6498e-030 -2.54444e-014 -1.27222e-014 -1.64307e-007 -1.71636e-006 2.24243e-008 9.54166e-015 2.38542e-015 1.59028e-015 -3.18055e-015 -5.56597e-015 1.59028e-015 37.6201 3.31043 24.8122 13.4315 -1.26495 -5.32199 19.2191 -1.37036 44.7221 19.6943 0.89229 9.76891 -4.77083e-015 -3.18055e-015 -0 1.59028e-015 0 -0 -1.59028e-015 -3.18055e-015 -0 -4.77083e-015 -3.18055e-015 -0 0.0150022 -8.86851e-005 2.13665e-006 3.18055e-015 1.59028e-015 -0 -4.77083e-015 -3.18055e-015 -0 0.0189843 -0.00118665 -6.21629e-005 1.59028e-015 3.18055e-015 -0 -4.77083e-015 -3.18055e-015 -0 0.012295 -0.00325573 -0.000677905 -1.59028e-015 0 -0 -4.77083e-015 -3.18055e-015 -0 1.59028e-015 0 -0 -1.59028e-015 -3.18055e-015 -0 -4.98577 -53.2317 -18.4238 -175.23 19.6888 167.719 -0.657595 54.5955 -13.9574 -3.81573e-008 2.2691e-006 3.71904e-007 4.83457 -53.1542 18.3307 175.294 19.7521 -167.741 0.820917 53.9535 13.8444 2.32772e-007 -2.35291e-008 -1.76585e-006 
7.91096 9.14685 -42.4291 0 0 -0 0.418509 0.537532 -2.64351 0.861423 1.05517 -5.29121 0.861422 1.05517 -5.29121 7.99954 -0.000218752 -18.0001 -0.215649 0.111763 -20.2498 -19.0661 -1.01126 -12.9967 -38.7962 -27.4415 -12.4191 -8.58519 2.64143 -60.3088 -31.0018 1.63149 -7.89717 1.59028e-014 -3.18055e-015 2.38542e-015 1.90833e-014 -7.55382e-015 7.95139e-016 9.54166e-015 -2.38542e-015 -7.95139e-016 1.59028e-014 -3.18055e-015 2.38542e-015 -0.0146107 -8.69645e-005 -1.4015e-006 -6.36111e-015 5.1684e-015 1.59028e-015 1.59028e-014 -3.18055e-015 2.38542e-015 -0.0187424 -0.00116899 5.22093e-005 -3.18055e-015 -7.55382e-015 -0 1.59028e-014 -3.18055e-015 2.38542e-015 -0.0122724 -0.00325059 0.000677805 -9.54166e-015 -3.18055e-015 -7.95139e-016 1.59028e-014 -3.18055e-015 2.38542e-015 1.90833e-014 -7.55382e-015 7.95139e-016 9.54166e-015 -2.38542e-015 -7.95139e-016 35.4871 3.15131 23.3484 12.648 -1.19114 -5.00879 18.028 -1.34699 42.0904 18.5442 0.841218 9.19415 7.80537e-007 3.06396e-006 5.35557e-006 2.50269e-008 9.92028e-007 3.19577e-006 -7.95139e-015 1.74931e-014 6.36111e-015 7.80537e-007 3.06396e-006 5.35557e-006 0.0149676 -8.70799e-005 1.03176e-005 6.36111e-015 -3.18055e-015 -3.18055e-015 7.80537e-007 3.06396e-006 5.35557e-006 0.019004 -0.00118974 -5.7427e-005 -0 -4.77083e-015 -0 7.80537e-007 3.06396e-006 5.35557e-006 0.0122941 -0.00325306 -0.00067709 1.59028e-015 -4.77083e-015 -0 7.80537e-007 3.06396e-006 5.35557e-006 2.50269e-008 9.92028e-007 3.19577e-006 -7.95139e-015 1.74931e-014 6.36111e-015 -4.33602 -49.961 -14.2276 -174.689 28.9098 170.063 -3.85306 50.9961 -10.0792 7.95139e-016 6.36111e-015 1.59028e-015 4.20053 -49.9217 14.1184 174.774 28.9611 -170.104 3.94463 50.4128 10.0218 -8.4802e-007 5.04316e-008 -2.41549e-006 
7.91096 9.14685 -42.4291 0 0 -0 0.418509 0.537532 -2.64351 0.861423 1.05517 -5.29121 0.861422 1.05517 -5.29121 7.99954 -0.000218752 -18.0001 -0.324194 0.166672 -19.8738 -19.0661 -1.01126 -12.9967 -38.7962 -27.4415 -12.4191 -8.58518 2.64143 -60.3088 -31.0018 1.63149 -7.89717 -4.74495e-031 -1.70955e-014 -1.59028e-015 6.36111e-015 -7.55382e-015 -1.59028e-015 9.54166e-015 -1.35174e-014 -7.95139e-016 -4.74495e-031 -1.70955e-014 -1.59028e-015 -0.0146608 -8.66551e-005 -3.63391e-006 3.18055e-015 7.95139e-016 -1.59028e-015 -4.74495e-031 -1.70955e-014 -1.59028e-015 -0.0187459 -0.00117585 5.8574e-005 -1.30913e-006 1.01029e-006 -1.84475e-006 -4.74495e-031 -1.70955e-014 -1.59028e-015 -0.0122766 -0.00325 0.000677169 6.36111e-015 2.78299e-015 3.18055e-015 -4.74495e-031 -1.70955e-014 -1.59028e-015 6.36111e-015 -7.55382e-015 -1.59028e-015 9.54166e-015 -1.35174e-014 -7.95139e-016 35.4871 3.15131 23.3484 12.648 -1.19113 -5.00879 18.028 -1.34699 42.0904 18.5442 0.841218 9.19414 9.56284e-007 1.65304e-006 9.22617e-007 -3.18055e-015 0 3.18055e-015 7.30484e-007 1.0799e-006 -1.03597e-006 9.56284e-007 1.65304e-006 9.22617e-007 0.0150119 -9.2098e-005 -6.16948e-006 7.30532e-007 1.07977e-006 -1.03611e-006 9.56284e-007 1.65304e-006 9.22617e-007 0.0189963 -0.00118423 -5.98738e-005 7.30535e-007 1.07973e-006 -1.03615e-006 9.56284e-007 1.65304e-006 9.22617e-007 0.0122899 -0.00325254 -0.000683207 7.30488e-007 1.07978e-006 -1.0361e-006 9.56284e-007 1.65304e-006 9.22617e-007 -3.18055e-015 0 3.18055e-015 7.30484e-007 1.0799e-006 -1.03597e-006 -4.33602 -49.961 -14.2275 -174.689 28.9098 170.063 -3.85305 50.9961 -10.0792 2.09896e-007 1.08138e-008 8.24073e-007 4.20053 -49.9217 14.1184 174.774 28.9611 -170.104 3.94465 50.4128 10.0218 8.82781e-032 3.18055e-015 -1.59028e-015 
